<svg width="18.000000" height="18.000000" viewBox="0 0 18 18" fill="none" xmlns="http://www.w3.org/2000/svg" xmlns:xlink="http://www.w3.org/1999/xlink">
	<desc>
			Created with Pixso.
	</desc>
	<defs>
		<clipPath id="clip765_14069">
			<rect id="Frame 27" rx="5.500000" width="17.000000" height="17.000000" transform="translate(0.500000 0.500000)" fill="white" fill-opacity="0"/>
		</clipPath>
		<linearGradient x1="1.894736" y1="8.999994" x2="17.171053" y2="8.999994" id="paint_linear_765_14069_0" gradientUnits="userSpaceOnUse">
			<stop stop-color="#6302D8"/>
			<stop offset="1.000000" stop-color="#5030CE"/>
		</linearGradient>
	</defs>
	<rect id="Frame 27" rx="5.500000" width="17.000000" height="17.000000" transform="translate(0.500000 0.500000)" fill="url(#paint_linear_765_14069_0)" fill-opacity="1.000000"/>
	<g clip-path="url(#clip765_14069)">
		<rect id="ic:outline-currency-ruble" rx="0.000000" width="13.000000" height="13.000000" transform="translate(2.500000 2.500000)" fill="#FFFFFF" fill-opacity="0"/>
		<path id="Vector" d="M9.87 3.75L6.08 3.75L6.08 9L4.91 9L4.91 10.16L6.08 10.16L6.08 11.33L4.91 11.33L4.91 12.5L6.08 12.5L6.08 14.25L7.25 14.25L7.25 12.5L9.58 12.5L9.58 11.33L7.25 11.33L7.25 10.16L9.87 10.16C11.64 10.16 13.08 8.73 13.08 6.95C13.08 5.18 11.64 3.75 9.87 3.75ZM9.87 9L7.25 9L7.25 4.91L9.87 4.91C11 4.91 11.91 5.83 11.91 6.95C11.91 8.08 11 9 9.87 9Z" fill="#F6F8FA" fill-opacity="1.000000" fill-rule="nonzero"/>
	</g>
</svg>
