<svg width="18.000000" height="18.000000" viewBox="0 0 18 18" fill="none" xmlns="http://www.w3.org/2000/svg" xmlns:xlink="http://www.w3.org/1999/xlink">
	<desc>
			Created with Pixso.
	</desc>
	<defs>
		<clipPath id="clip765_14063">
			<rect id="Frame 27" rx="5.500000" width="17.000000" height="17.000000" transform="translate(0.500000 0.500000)" fill="white" fill-opacity="0"/>
		</clipPath>
		<linearGradient x1="1.894736" y1="8.999994" x2="17.171053" y2="8.999994" id="paint_linear_765_14063_0" gradientUnits="userSpaceOnUse">
			<stop stop-color="#6302D8"/>
			<stop offset="1.000000" stop-color="#5030CE"/>
		</linearGradient>
	</defs>
	<rect id="Frame 27" rx="5.500000" width="17.000000" height="17.000000" transform="translate(0.500000 0.500000)" fill="url(#paint_linear_765_14063_0)" fill-opacity="1.000000"/>
	<g clip-path="url(#clip765_14063)">
		<rect id="bx:bx-dollar" rx="0.000000" width="13.000000" height="13.000000" transform="translate(2.500000 2.500000)" fill="#FFFFFF" fill-opacity="0"/>
		<path id="Vector" d="M11.33 6.95L12.5 6.95C12.5 5.3 10.89 4.54 9.58 4.37L9.58 3.16L8.41 3.16L8.41 4.37C7.1 4.54 5.5 5.3 5.5 6.95C5.5 8.53 7.05 9.35 8.41 9.54L8.41 12.44C7.57 12.29 6.66 11.84 6.66 11.04L5.5 11.04C5.5 12.55 6.91 13.44 8.41 13.62L8.41 14.83L9.58 14.83L9.58 13.62C10.89 13.45 12.5 12.69 12.5 11.04C12.5 9.38 10.89 8.63 9.58 8.45L9.58 5.55C10.35 5.69 11.33 6.1 11.33 6.95ZM6.66 6.95C6.66 6.1 7.64 5.69 8.41 5.55L8.41 8.35C7.61 8.2 6.66 7.77 6.66 6.95ZM11.33 11.04C11.33 11.89 10.35 12.3 9.58 12.44L9.58 9.64C10.35 9.78 11.33 10.18 11.33 11.04Z" fill="#F6F8FA" fill-opacity="1.000000" fill-rule="nonzero"/>
	</g>
</svg>
