<svg width="120.239258" height="22.009766" viewBox="0 0 120.239 22.0098" fill="none" xmlns="http://www.w3.org/2000/svg" xmlns:xlink="http://www.w3.org/1999/xlink">
	<desc>
			Created with Pixso.
	</desc>
	<defs/>
	<path id="Path_1" d="M27.83 14.76L27.12 15.46C27.06 15.52 27.02 15.58 26.99 15.65C26.96 15.73 26.94 15.8 26.94 15.88L26.94 17.5C26.94 17.58 26.93 17.66 26.9 17.73C26.87 17.8 26.82 17.86 26.77 17.92C26.71 17.97 26.65 18.01 26.58 18.04C26.5 18.07 26.43 18.09 26.35 18.09L24.71 18.09C24.64 18.09 24.56 18.07 24.49 18.04C24.42 18.01 24.35 17.97 24.3 17.92C24.24 17.86 24.2 17.8 24.17 17.73C24.14 17.66 24.12 17.58 24.12 17.5L24.12 5.38C24.12 5.3 24.14 5.23 24.17 5.15C24.2 5.08 24.24 5.02 24.3 4.96C24.35 4.91 24.42 4.87 24.49 4.84C24.56 4.81 24.64 4.79 24.71 4.79L26.35 4.79C26.43 4.79 26.5 4.81 26.58 4.84C26.65 4.87 26.71 4.91 26.77 4.96C26.82 5.02 26.87 5.08 26.9 5.15C26.93 5.23 26.94 5.3 26.94 5.38L26.94 10.96C26.94 11.07 26.97 11.18 27.04 11.28C27.1 11.38 27.19 11.45 27.3 11.5C27.4 11.54 27.52 11.56 27.64 11.53C27.75 11.51 27.86 11.46 27.94 11.38L30.89 8.61C31 8.51 31.15 8.45 31.3 8.45L33.01 8.45C33.13 8.45 33.24 8.48 33.34 8.55C33.44 8.61 33.51 8.7 33.56 8.81C33.6 8.91 33.62 9.03 33.59 9.15C33.57 9.26 33.52 9.36 33.43 9.45L30.74 12.17C30.64 12.27 30.58 12.4 30.57 12.55C30.56 12.69 30.61 12.83 30.7 12.94L34.03 17.14C34.1 17.23 34.14 17.33 34.15 17.44C34.16 17.55 34.15 17.66 34.1 17.76C34.05 17.86 33.97 17.94 33.88 18C33.79 18.06 33.68 18.09 33.57 18.09L31.65 18.09C31.56 18.09 31.48 18.07 31.4 18.03C31.32 18 31.25 17.94 31.19 17.87L28.71 14.81C28.66 14.75 28.59 14.69 28.52 14.66C28.44 14.62 28.36 14.6 28.28 14.59C28.2 14.59 28.11 14.6 28.04 14.63C27.96 14.66 27.89 14.71 27.83 14.76Z" fill="#F6F8FA" fill-opacity="1.000000" fill-rule="nonzero"/>
	<path id="Path_2" d="M36.12 6.66C35.97 6.51 35.84 6.34 35.76 6.15C35.67 5.96 35.63 5.75 35.63 5.54C35.63 5.33 35.67 5.13 35.76 4.94C35.84 4.75 35.97 4.58 36.12 4.43C36.47 4.13 36.92 3.96 37.38 3.98C37.79 3.97 38.18 4.08 38.52 4.31C38.76 4.49 38.94 4.73 39.04 5.01C39.14 5.29 39.16 5.59 39.09 5.88C39.03 6.17 38.87 6.44 38.65 6.65C38.3 6.96 37.85 7.12 37.38 7.1C36.92 7.12 36.47 6.96 36.12 6.66ZM36.01 8.45L38.76 8.45C38.77 8.45 38.78 8.45 38.78 8.46C38.79 8.46 38.79 8.47 38.79 8.48L38.79 18.05C38.79 18.06 38.79 18.07 38.78 18.08C38.78 18.08 38.77 18.09 38.76 18.09L36.01 18.09C36 18.09 35.99 18.08 35.99 18.08C35.98 18.07 35.98 18.06 35.98 18.05L35.98 8.48C35.97 8.48 35.98 8.47 35.98 8.47C35.98 8.47 35.98 8.46 35.98 8.46C35.99 8.45 35.99 8.45 36 8.45C36 8.45 36.01 8.45 36.01 8.45Z" fill="#F6F8FA" fill-opacity="1.000000" fill-rule="nonzero"/>
	<path id="Path_3" d="M50.55 9.41C50.95 9.86 51.25 10.38 51.44 10.94C51.63 11.5 51.71 12.1 51.66 12.69L51.66 18.01C51.66 18.11 51.62 18.2 51.56 18.26C51.49 18.33 51.4 18.37 51.31 18.37L49.2 18.37C49.1 18.37 49.01 18.33 48.95 18.26C48.88 18.2 48.84 18.11 48.84 18.01L48.84 13.14C48.89 12.51 48.71 11.88 48.34 11.37C48.15 11.18 47.93 11.02 47.67 10.92C47.42 10.82 47.15 10.78 46.87 10.79C46.56 10.78 46.24 10.83 45.95 10.95C45.66 11.07 45.39 11.24 45.18 11.47C44.71 12.03 44.49 12.75 44.54 13.47L44.54 18.01C44.54 18.11 44.5 18.2 44.44 18.26C44.37 18.33 44.28 18.37 44.19 18.37L42.08 18.37C41.98 18.37 41.89 18.33 41.83 18.26C41.76 18.2 41.72 18.11 41.72 18.01L41.72 8.81C41.72 8.72 41.76 8.63 41.83 8.56C41.89 8.5 41.98 8.46 42.08 8.45L44.06 8.45C44.15 8.46 44.24 8.5 44.31 8.56C44.38 8.63 44.41 8.72 44.41 8.81C44.41 8.88 44.43 8.94 44.46 9C44.49 9.05 44.54 9.1 44.6 9.13C44.65 9.16 44.72 9.18 44.78 9.17C44.85 9.17 44.91 9.15 44.97 9.11C45.23 8.92 45.51 8.77 45.8 8.65C46.38 8.41 47 8.3 47.63 8.3C48.17 8.28 48.7 8.37 49.21 8.56C49.71 8.75 50.17 9.04 50.55 9.41Z" fill="#F6F8FA" fill-opacity="1.000000" fill-rule="nonzero"/>
	<path id="Path_4" d="M64.2 8.73C64.29 8.73 64.38 8.77 64.45 8.84C64.52 8.9 64.56 9 64.56 9.09L64.56 16.76C64.62 17.47 64.52 18.19 64.28 18.87C64.04 19.55 63.66 20.17 63.17 20.7C62.03 21.63 60.57 22.09 59.1 21.99C58.2 21.99 57.3 21.88 56.43 21.65C55.78 21.49 55.17 21.22 54.61 20.86C54.53 20.81 54.48 20.73 54.45 20.64C54.43 20.55 54.44 20.46 54.49 20.38L55.25 19.02C55.28 18.97 55.31 18.93 55.35 18.9C55.39 18.87 55.44 18.85 55.49 18.84C55.54 18.83 55.59 18.83 55.64 18.83C55.69 18.84 55.73 18.86 55.78 18.89C56.16 19.13 56.57 19.32 57.01 19.45C57.61 19.65 58.25 19.75 58.88 19.75C59.66 19.81 60.43 19.58 61.04 19.1C61.29 18.83 61.48 18.52 61.6 18.18C61.72 17.84 61.77 17.48 61.74 17.12L61.74 16.7C61.35 17.11 60.87 17.43 60.34 17.64C59.81 17.84 59.24 17.94 58.67 17.9C57.81 17.91 56.97 17.71 56.22 17.32C55.49 16.95 54.88 16.38 54.46 15.68C54.03 14.94 53.8 14.1 53.8 13.25C53.8 12.39 54.03 11.55 54.46 10.81C54.88 10.11 55.49 9.54 56.22 9.17C56.97 8.77 57.81 8.58 58.67 8.58C59.61 8.55 60.53 8.82 61.29 9.37C61.34 9.42 61.4 9.45 61.47 9.46C61.54 9.47 61.61 9.45 61.68 9.42C61.74 9.4 61.79 9.35 61.83 9.29C61.87 9.23 61.89 9.16 61.88 9.09C61.88 9 61.92 8.91 61.99 8.84C62.06 8.77 62.15 8.73 62.25 8.73L64.2 8.73ZM61.07 14.96C61.52 14.5 61.78 13.89 61.78 13.25C61.78 12.61 61.52 11.99 61.07 11.54C60.56 11.09 59.91 10.86 59.23 10.88C58.56 10.86 57.9 11.09 57.39 11.54C57.16 11.76 56.98 12.03 56.86 12.32C56.73 12.61 56.67 12.93 56.67 13.25C56.67 13.57 56.73 13.88 56.86 14.17C56.98 14.47 57.16 14.74 57.39 14.96C57.9 15.4 58.56 15.64 59.23 15.61C59.91 15.64 60.57 15.41 61.07 14.96L61.07 14.96Z" fill="#F6F8FA" fill-opacity="1.000000" fill-rule="nonzero"/>
	<path id="Path_5" d="M75.95 8.82C76.59 9.17 77.13 9.69 77.49 10.32C77.88 11.02 78.08 11.82 78.06 12.62C78.07 13.63 77.83 14.62 77.34 15.5C76.89 16.33 76.21 17.03 75.39 17.51C74.57 18 73.63 18.24 72.67 18.23C71.99 18.25 71.32 18.11 70.7 17.84C70.46 17.73 70.24 17.58 70.04 17.41C69.97 17.35 69.9 17.31 69.81 17.29C69.72 17.27 69.63 17.28 69.55 17.31C69.47 17.33 69.39 17.38 69.33 17.44C69.27 17.51 69.23 17.59 69.21 17.67L69.21 17.69C69.19 17.81 69.13 17.91 69.04 17.98C68.95 18.05 68.84 18.09 68.73 18.09L67.07 18.09C66.99 18.09 66.92 18.07 66.85 18.04C66.79 18.01 66.73 17.97 66.68 17.91C66.64 17.85 66.6 17.79 66.58 17.72C66.57 17.65 66.57 17.57 66.58 17.5L69.06 5.19C69.08 5.08 69.14 4.98 69.23 4.9C69.32 4.83 69.43 4.79 69.54 4.79L71.35 4.79C71.42 4.79 71.5 4.81 71.56 4.84C71.63 4.87 71.69 4.92 71.73 4.97C71.78 5.03 71.81 5.09 71.83 5.16C71.85 5.24 71.85 5.31 71.84 5.38L71.28 8.15C71.26 8.24 71.27 8.33 71.3 8.42C71.33 8.5 71.38 8.58 71.46 8.63C71.53 8.69 71.61 8.72 71.7 8.73C71.79 8.74 71.88 8.73 71.97 8.69C72.56 8.43 73.2 8.29 73.85 8.3C74.58 8.3 75.31 8.48 75.95 8.82ZM73.83 15.52C74.26 15.25 74.62 14.86 74.84 14.4C75.09 13.88 75.21 13.32 75.2 12.75C75.22 12.46 75.17 12.18 75.07 11.91C74.97 11.64 74.82 11.4 74.62 11.19C74.4 10.99 74.14 10.84 73.86 10.74C73.58 10.64 73.28 10.6 72.98 10.62C72.46 10.61 71.96 10.75 71.52 11.02C71.08 11.29 70.73 11.68 70.51 12.14C70.26 12.65 70.13 13.22 70.14 13.79C70.13 14.07 70.17 14.36 70.27 14.63C70.37 14.9 70.52 15.14 70.72 15.35C70.94 15.55 71.2 15.7 71.48 15.8C71.75 15.9 72.05 15.94 72.35 15.92C72.87 15.93 73.38 15.79 73.83 15.52L73.83 15.52Z" fill="#F6F8FA" fill-opacity="1.000000" fill-rule="nonzero"/>
	<path id="Path_6" d="M81.65 17.96C80.93 17.62 80.34 17.08 79.93 16.41C79.52 15.7 79.31 14.89 79.33 14.07C79.31 13.04 79.57 12.02 80.08 11.12C80.58 10.26 81.31 9.55 82.18 9.06C83.1 8.55 84.14 8.29 85.2 8.3C86.09 8.28 86.98 8.47 87.78 8.86C88.49 9.2 89.08 9.74 89.49 10.41C89.9 11.12 90.11 11.93 90.09 12.75C90.11 13.78 89.85 14.8 89.34 15.7C88.85 16.56 88.13 17.28 87.25 17.76C86.32 18.27 85.28 18.53 84.22 18.52C83.33 18.54 82.45 18.34 81.65 17.96ZM85.87 15.72C86.31 15.44 86.66 15.04 86.88 14.57C87.13 14.04 87.25 13.46 87.24 12.87C87.26 12.58 87.21 12.29 87.12 12.01C87.02 11.74 86.86 11.49 86.66 11.27C86.45 11.07 86.19 10.91 85.91 10.81C85.63 10.71 85.33 10.66 85.04 10.68C84.51 10.67 84 10.82 83.56 11.1C83.12 11.38 82.77 11.78 82.54 12.25C82.29 12.78 82.17 13.36 82.18 13.94C82.16 14.24 82.2 14.54 82.3 14.82C82.4 15.09 82.56 15.35 82.78 15.56C82.99 15.76 83.24 15.92 83.52 16.03C83.81 16.13 84.11 16.16 84.4 16.14C84.92 16.14 85.43 16 85.87 15.72L85.87 15.72Z" fill="#F6F8FA" fill-opacity="1.000000" fill-rule="nonzero"/>
	<path id="Path_7" d="M93.68 17.96C92.96 17.62 92.37 17.08 91.96 16.41C91.55 15.7 91.34 14.89 91.36 14.07C91.34 13.04 91.6 12.02 92.11 11.12C92.61 10.26 93.34 9.55 94.21 9.06C95.13 8.55 96.17 8.29 97.23 8.3C98.12 8.28 99.01 8.47 99.81 8.86C100.52 9.2 101.11 9.74 101.52 10.41C101.93 11.12 102.14 11.93 102.13 12.75C102.14 13.78 101.88 14.8 101.38 15.7C100.88 16.56 100.16 17.28 99.28 17.76C98.35 18.27 97.31 18.53 96.25 18.52C95.36 18.53 94.48 18.34 93.68 17.96ZM97.9 15.72C98.34 15.44 98.69 15.04 98.91 14.57C99.16 14.04 99.28 13.46 99.27 12.87C99.29 12.58 99.25 12.29 99.15 12.01C99.05 11.74 98.89 11.49 98.69 11.27C98.48 11.07 98.22 10.91 97.94 10.81C97.66 10.71 97.37 10.66 97.07 10.68C96.54 10.67 96.03 10.82 95.59 11.1C95.15 11.38 94.8 11.78 94.57 12.25C94.32 12.78 94.2 13.36 94.21 13.94C94.19 14.24 94.23 14.54 94.33 14.82C94.43 15.09 94.59 15.35 94.81 15.56C95.02 15.76 95.27 15.92 95.55 16.03C95.84 16.13 96.14 16.16 96.43 16.14C96.95 16.15 97.46 16 97.9 15.72L97.9 15.72Z" fill="#F6F8FA" fill-opacity="1.000000" fill-rule="nonzero"/>
	<path id="Path_8" d="M104.46 18.23C103.87 18.1 103.31 17.87 102.8 17.56C102.77 17.54 102.75 17.51 102.74 17.47C102.74 17.44 102.74 17.41 102.76 17.38L103.71 15.54C103.72 15.52 103.73 15.5 103.75 15.49C103.76 15.48 103.78 15.47 103.8 15.47C103.81 15.46 103.83 15.46 103.85 15.46C103.87 15.47 103.89 15.47 103.9 15.48C104.35 15.75 104.83 15.95 105.33 16.09C105.92 16.26 106.54 16.34 107.16 16.34C107.65 16.37 108.14 16.29 108.59 16.09C108.73 16.03 108.85 15.94 108.93 15.81C109.01 15.68 109.06 15.54 109.06 15.39C109.06 15.26 109.02 15.15 108.94 15.05C108.86 14.95 108.76 14.88 108.64 14.85C108.21 14.7 107.76 14.58 107.3 14.5C106.72 14.4 106.14 14.25 105.58 14.06C105.13 13.9 104.72 13.63 104.4 13.27C104.06 12.86 103.88 12.33 103.91 11.79C103.89 11.28 104.01 10.78 104.24 10.33C104.48 9.89 104.83 9.5 105.25 9.23C106.31 8.57 107.54 8.25 108.79 8.31C109.45 8.31 110.11 8.38 110.76 8.53C111.28 8.64 111.79 8.82 112.27 9.07C112.3 9.09 112.32 9.11 112.33 9.15C112.34 9.18 112.34 9.22 112.32 9.25L111.43 11.1C111.43 11.12 111.42 11.13 111.4 11.14C111.39 11.16 111.37 11.16 111.35 11.17C111.33 11.17 111.31 11.18 111.3 11.17C111.28 11.17 111.26 11.16 111.24 11.16C110.41 10.69 109.46 10.45 108.5 10.48C108.01 10.45 107.53 10.54 107.1 10.75C106.96 10.82 106.84 10.91 106.76 11.04C106.67 11.16 106.63 11.31 106.62 11.45C106.62 11.58 106.66 11.7 106.73 11.8C106.81 11.91 106.91 11.98 107.03 12.02C107.49 12.18 107.95 12.31 108.43 12.39C109 12.5 109.56 12.65 110.11 12.83C110.56 12.98 110.95 13.25 111.26 13.59C111.59 13.98 111.76 14.47 111.75 14.97C111.76 15.51 111.63 16.03 111.38 16.5C111.13 16.98 110.76 17.37 110.3 17.66C109.26 18.27 108.06 18.56 106.85 18.51C106.05 18.52 105.24 18.42 104.46 18.23Z" fill="#F6F8FA" fill-opacity="1.000000" fill-rule="nonzero"/>
	<path id="Path_9" d="M116.74 14.68C116.71 14.81 116.7 14.95 116.7 15.08C116.7 15.7 117.04 16.01 117.73 16.01C117.9 16.01 118.08 15.99 118.24 15.94C118.32 15.92 118.41 15.91 118.49 15.92C118.58 15.93 118.66 15.96 118.73 16C118.81 16.05 118.87 16.1 118.92 16.17C118.97 16.24 119 16.32 119.02 16.4L119.19 17.2C119.22 17.34 119.2 17.49 119.13 17.62C119.06 17.74 118.95 17.84 118.82 17.89C118.2 18.13 117.53 18.25 116.86 18.23C116.06 18.27 115.28 18.01 114.66 17.51C114.38 17.26 114.16 16.96 114.02 16.62C113.87 16.28 113.81 15.91 113.83 15.54C113.83 15.26 113.86 14.98 113.92 14.7L114.55 11.54C114.57 11.45 114.57 11.36 114.55 11.27C114.52 11.18 114.48 11.1 114.43 11.03C114.37 10.96 114.3 10.91 114.21 10.87C114.13 10.83 114.04 10.81 113.95 10.81C113.86 10.81 113.77 10.79 113.69 10.75C113.6 10.71 113.53 10.66 113.47 10.58C113.42 10.52 113.37 10.43 113.35 10.35C113.33 10.26 113.33 10.17 113.35 10.08L113.53 9.15C113.56 9.01 113.64 8.89 113.75 8.8C113.86 8.71 114 8.66 114.14 8.66L114.63 8.66C114.77 8.66 114.91 8.61 115.02 8.52C115.13 8.43 115.2 8.31 115.23 8.17L115.5 6.8C115.53 6.66 115.61 6.54 115.72 6.45C115.83 6.36 115.97 6.31 116.11 6.31L117.67 6.31C117.76 6.31 117.85 6.33 117.93 6.37C118.02 6.41 118.09 6.46 118.15 6.53C118.21 6.6 118.25 6.68 118.27 6.77C118.29 6.86 118.29 6.95 118.28 7.04L118.09 7.93C118.08 8.02 118.08 8.11 118.1 8.2C118.12 8.28 118.16 8.36 118.22 8.43C118.28 8.5 118.35 8.56 118.43 8.6C118.52 8.64 118.61 8.66 118.7 8.66L119.62 8.66C119.71 8.66 119.8 8.68 119.88 8.72C119.97 8.75 120.04 8.81 120.1 8.88C120.15 8.95 120.19 9.03 120.22 9.12C120.24 9.21 120.24 9.3 120.22 9.39L120.04 10.32C120.01 10.46 119.93 10.58 119.82 10.67C119.71 10.76 119.57 10.81 119.43 10.81L118.02 10.81C117.88 10.81 117.74 10.86 117.63 10.95C117.52 11.04 117.44 11.16 117.42 11.3L116.74 14.68Z" fill="#F6F8FA" fill-opacity="1.000000" fill-rule="nonzero"/>
	<path id="Icon_awesome-angle-double-up" d="M10.13 11.35L14.52 18.87C14.59 19 14.63 19.13 14.65 19.27C14.67 19.41 14.66 19.56 14.62 19.69C14.59 19.83 14.52 19.96 14.44 20.07C14.35 20.19 14.24 20.28 14.12 20.35L12.86 21.08C12.73 21.15 12.59 21.19 12.45 21.21C12.31 21.23 12.17 21.22 12.03 21.18C11.89 21.15 11.76 21.08 11.65 21C11.53 20.91 11.44 20.8 11.37 20.68C11.37 20.68 10.37 15.91 8.25 15.35C6.13 14.79 2.88 18.43 2.88 18.43C2.75 18.5 2.62 18.55 2.47 18.57C2.33 18.59 2.19 18.58 2.05 18.54C1.91 18.5 1.78 18.44 1.67 18.35C1.55 18.27 1.46 18.16 1.39 18.04L0.65 16.79C0.58 16.66 0.53 16.53 0.52 16.39C0.5 16.25 0.51 16.1 0.54 15.97C0.58 15.83 0.64 15.7 0.73 15.59C0.82 15.48 0.93 15.38 1.05 15.31L8.63 10.96C8.76 10.89 8.9 10.84 9.04 10.82C9.18 10.8 9.33 10.81 9.47 10.85C9.61 10.88 9.74 10.95 9.85 11.03C9.96 11.12 10.06 11.23 10.13 11.35Z" fill="#F6F8FA" fill-opacity="1.000000" fill-rule="nonzero"/>
	<path id="Icon_awesome-angle-double-up-2" d="M12.85 2.37L17.24 9.89C17.31 10.01 17.35 10.15 17.37 10.29C17.39 10.43 17.38 10.57 17.34 10.71C17.31 10.85 17.24 10.98 17.16 11.09C17.07 11.2 16.96 11.3 16.84 11.37L15.58 12.09C15.45 12.16 15.31 12.21 15.17 12.23C15.03 12.25 14.89 12.24 14.75 12.2C14.61 12.16 14.48 12.1 14.37 12.01C14.25 11.93 14.16 11.82 14.08 11.69C14.08 11.69 13.09 6.93 10.97 6.37C8.85 5.8 5.6 9.45 5.6 9.45C5.47 9.52 5.34 9.57 5.19 9.58C5.05 9.6 4.91 9.59 4.77 9.56C4.63 9.52 4.5 9.46 4.39 9.37C4.27 9.28 4.18 9.17 4.11 9.05L3.37 7.8C3.3 7.68 3.25 7.55 3.24 7.4C3.22 7.26 3.23 7.12 3.26 6.98C3.3 6.84 3.36 6.72 3.45 6.6C3.54 6.49 3.65 6.4 3.77 6.33L11.35 1.98C11.48 1.91 11.62 1.86 11.76 1.84C11.9 1.82 12.05 1.83 12.19 1.86C12.33 1.9 12.46 1.96 12.57 2.05C12.68 2.14 12.78 2.24 12.85 2.37Z" fill="#F6F8FA" fill-opacity="1.000000" fill-rule="nonzero"/>
</svg>
