<svg width="18.000000" height="13.000000" viewBox="0 0 18 13" fill="none" xmlns="http://www.w3.org/2000/svg" xmlns:xlink="http://www.w3.org/1999/xlink">
	<desc>
			Created with Pixso.
	</desc>
	<defs/>
	<path id="Vector" d="M17.72 1C17.37 0.4 16.73 0 16 0L9 0L9 1L17.72 1ZM0 10L18 10L18 11L0 11L0 10ZM9 6L18 6L18 7L9 7L9 6ZM9 4L18 4L18 5L9 5L9 4ZM0 8L18 8L18 9L0 9L0 8ZM2 13L16 13C16.73 13 17.37 12.59 17.72 12L0.27 12C0.62 12.59 1.26 13 2 13ZM9 2L18 2L18 3L9 3L9 2Z" fill="#B22334" fill-opacity="1.000000" fill-rule="nonzero"/>
	<path id="Vector" d="M0.03 11.33C0.04 11.38 0.05 11.43 0.06 11.47C0.07 11.52 0.09 11.57 0.1 11.62C0.15 11.75 0.2 11.88 0.27 11.99L0.27 12L17.72 12L17.72 11.99C17.79 11.88 17.84 11.75 17.88 11.62C17.9 11.57 17.92 11.52 17.93 11.47C17.94 11.43 17.95 11.38 17.96 11.33C17.98 11.23 18 11.11 18 11L0 11C0 11.11 0.01 11.22 0.03 11.33ZM0 9L18 9L18 10L0 10L0 9ZM0 7L0 8L18 8L18 7L9 7L0 7ZM9 5L18 5L18 6L9 6L9 5ZM9 3L18 3L18 4L9 4L9 3ZM0 2C0 1.88 0.01 1.77 0.03 1.66C0.01 1.77 0 1.88 0 2ZM0.27 1L0.27 1L0.27 1ZM0.06 1.52C0.07 1.47 0.09 1.42 0.11 1.37C0.09 1.42 0.07 1.47 0.06 1.52ZM9 2L18 2C18 1.88 17.98 1.76 17.96 1.66C17.95 1.61 17.94 1.56 17.93 1.52C17.92 1.47 17.9 1.42 17.88 1.37C17.84 1.24 17.79 1.11 17.72 1C17.72 1 17.72 1 17.72 1L9 1L9 2Z" fill="#EEEEEE" fill-opacity="1.000000" fill-rule="nonzero"/>
	<path id="Vector" d="M9 0L2 0C0.89 0 0 0.89 0 2L0 7L9 7L9 0Z" fill="#3C3B6E" fill-opacity="1.000000" fill-rule="nonzero"/>
	<path id="Vector" d="M1 1.36L1.3 1.58L1.19 1.94L1.49 1.72L1.8 1.94L1.69 1.58L1.99 1.36L1.61 1.36L1.49 1L1.38 1.36L1 1.36ZM2 2.36L2.3 2.58L2.19 2.94L2.49 2.72L2.8 2.94L2.69 2.58L2.99 2.36L2.61 2.36L2.49 2L2.38 2.36L2 2.36ZM4 2.36L4.3 2.58L4.19 2.94L4.49 2.72L4.8 2.94L4.69 2.58L4.99 2.36L4.61 2.36L4.49 2L4.38 2.36L4 2.36ZM6 2.36L6.3 2.58L6.19 2.94L6.49 2.72L6.8 2.94L6.69 2.58L6.99 2.36L6.61 2.36L6.49 2L6.38 2.36L6 2.36ZM2 4.36L2.3 4.58L2.19 4.94L2.49 4.72L2.8 4.94L2.69 4.58L2.99 4.36L2.61 4.36L2.49 4L2.38 4.36L2 4.36ZM4 4.36L4.3 4.58L4.19 4.94L4.49 4.72L4.8 4.94L4.69 4.58L4.99 4.36L4.61 4.36L4.49 4L4.38 4.36L4 4.36ZM6 4.36L6.3 4.58L6.19 4.94L6.49 4.72L6.8 4.94L6.69 4.58L6.99 4.36L6.61 4.36L6.49 4L6.38 4.36L6 4.36ZM3 1.36L3.3 1.58L3.19 1.94L3.49 1.72L3.8 1.94L3.69 1.58L3.99 1.36L3.61 1.36L3.49 1L3.38 1.36L3 1.36ZM5 1.36L5.3 1.58L5.19 1.94L5.49 1.72L5.8 1.94L5.69 1.58L5.99 1.36L5.61 1.36L5.49 1L5.38 1.36L5 1.36ZM7 1.36L7.3 1.58L7.19 1.94L7.49 1.72L7.8 1.94L7.69 1.58L7.99 1.36L7.61 1.36L7.49 1L7.38 1.36L7 1.36ZM1 3.36L1.3 3.58L1.19 3.94L1.49 3.72L1.8 3.94L1.69 3.58L1.99 3.36L1.61 3.36L1.49 3L1.38 3.36L1 3.36ZM3.19 3.94L3.49 3.72L3.8 3.94L3.69 3.58L3.99 3.36L3.61 3.36L3.49 3L3.38 3.36L3 3.36L3.3 3.58L3.19 3.94ZM5 3.36L5.3 3.58L5.19 3.94L5.49 3.72L5.8 3.94L5.69 3.58L5.99 3.36L5.61 3.36L5.49 3L5.38 3.36L5 3.36ZM7 3.36L7.3 3.58L7.19 3.94L7.49 3.72L7.8 3.94L7.69 3.58L7.99 3.36L7.61 3.36L7.49 3L7.38 3.36L7 3.36ZM1 5.36L1.3 5.58L1.19 5.94L1.49 5.72L1.8 5.94L1.69 5.58L1.99 5.36L1.61 5.36L1.49 5L1.38 5.36L1 5.36ZM3.19 5.94L3.49 5.72L3.8 5.94L3.69 5.58L3.99 5.36L3.61 5.36L3.49 5L3.38 5.36L3 5.36L3.3 5.58L3.19 5.94ZM5 5.36L5.3 5.58L5.19 5.94L5.49 5.72L5.8 5.94L5.69 5.58L5.99 5.36L5.61 5.36L5.49 5L5.38 5.36L5 5.36ZM7 5.36L7.3 5.58L7.19 5.94L7.49 5.72L7.8 5.94L7.69 5.58L7.99 5.36L7.61 5.36L7.49 5L7.38 5.36L7 5.36Z" fill="#212121" fill-opacity="1.000000" fill-rule="nonzero"/>
</svg>
