<svg width="18.000000" height="18.000000" viewBox="0 0 18 18" fill="none" xmlns="http://www.w3.org/2000/svg" xmlns:xlink="http://www.w3.org/1999/xlink">
	<desc>
			Created with Pixso.
	</desc>
	<defs>
		<clipPath id="clip765_14074">
			<rect id="Frame 27" rx="5.500000" width="17.000000" height="17.000000" transform="translate(0.500000 0.500000)" fill="white" fill-opacity="0"/>
		</clipPath>
		<linearGradient x1="1.894736" y1="8.999994" x2="17.171053" y2="8.999994" id="paint_linear_765_14074_0" gradientUnits="userSpaceOnUse">
			<stop stop-color="#6302D8"/>
			<stop offset="1.000000" stop-color="#5030CE"/>
		</linearGradient>
	</defs>
	<rect id="Frame 27" rx="5.500000" width="17.000000" height="17.000000" transform="translate(0.500000 0.500000)" fill="url(#paint_linear_765_14074_0)" fill-opacity="1.000000"/>
	<g clip-path="url(#clip765_14074)">
		<rect id="ic:baseline-euro-symbol" rx="0.000000" width="13.000000" height="13.000000" transform="translate(1.500000 2.500000)" fill="#FFFFFF" fill-opacity="0"/>
		<path id="Vector" d="M9.75 12.79C9.05 12.79 8.37 12.6 7.78 12.24C7.19 11.88 6.7 11.36 6.39 10.75L9.75 10.75L9.75 9.58L6 9.58C5.97 9.39 5.95 9.19 5.95 9C5.95 8.8 5.97 8.6 6 8.41L9.75 8.41L9.75 7.25L6.39 7.25C6.7 6.63 7.19 6.11 7.78 5.75C8.37 5.39 9.05 5.2 9.75 5.2C10.68 5.2 11.55 5.55 12.21 6.12L13.25 5.09C12.28 4.22 11.04 3.74 9.75 3.75C7.46 3.75 5.52 5.21 4.8 7.25L2.75 7.25L2.75 8.41L4.53 8.41C4.48 8.8 4.48 9.19 4.53 9.58L2.75 9.58L2.75 10.75L4.8 10.75C5.52 12.78 7.46 14.25 9.75 14.25C11.09 14.25 12.32 13.74 13.25 12.9L12.21 11.87C11.55 12.44 10.69 12.79 9.75 12.79Z" fill="#F6F8FA" fill-opacity="1.000000" fill-rule="nonzero"/>
	</g>
</svg>
