<svg width="177.000000" height="34.000000" viewBox="0 0 177 34" fill="none" xmlns="http://www.w3.org/2000/svg" xmlns:xlink="http://www.w3.org/1999/xlink">
	<desc>
			Created with Pixso.
	</desc>
	<defs>
		<clipPath id="clip765_12371">
			<rect id="Frame 35" rx="7.500000" width="44.000000" height="31.000000" transform="translate(132.500000 2.500000)" fill="white" fill-opacity="0"/>
		</clipPath>
	</defs>
	<rect id="trustpilot logo" rx="0.000000" width="119.000000" height="23.000000" transform="translate(0.500000 6.500000)" fill="#FFFFFF" fill-opacity="0"/>
	<path id="Vector" d="M31.53 10.6L43.67 10.6L43.67 12.9L38.9 12.9L38.9 25.83L36.27 25.83L36.27 12.9L31.51 12.9L31.51 10.6L31.53 10.6ZM43.15 14.8L45.4 14.8L45.4 16.93L45.44 16.93C45.52 16.63 45.65 16.34 45.86 16.06C46.06 15.78 46.3 15.51 46.59 15.28C46.87 15.05 47.19 14.87 47.54 14.72C47.89 14.58 48.25 14.5 48.61 14.5C48.88 14.5 49.09 14.51 49.19 14.52C49.3 14.53 49.4 14.55 49.52 14.56L49.52 16.91C49.35 16.88 49.18 16.85 49 16.83C48.82 16.81 48.65 16.8 48.48 16.8C48.08 16.8 47.7 16.89 47.34 17.05C46.98 17.21 46.67 17.46 46.41 17.77C46.14 18.09 45.93 18.48 45.77 18.95C45.61 19.42 45.54 19.96 45.54 20.58L45.54 25.82L43.14 25.82L43.14 14.8L43.15 14.8ZM60.52 25.83L58.17 25.83L58.17 24.3L58.13 24.3C57.83 24.85 57.4 25.3 56.82 25.63C56.23 25.96 55.64 26.13 55.04 26.13C53.61 26.13 52.57 25.78 51.93 25.06C51.3 24.34 50.98 23.25 50.98 21.8L50.98 14.8L53.37 14.8L53.37 21.56C53.37 22.53 53.56 23.22 53.93 23.62C54.29 24.02 54.8 24.22 55.46 24.22C55.97 24.22 56.38 24.15 56.72 23.98C57.06 23.82 57.34 23.62 57.54 23.35C57.75 23.09 57.9 22.77 57.99 22.4C58.09 22.04 58.13 21.64 58.13 21.21L58.13 14.81L60.52 14.81L60.52 25.83ZM64.6 22.3C64.68 23 64.94 23.5 65.4 23.79C65.86 24.07 66.41 24.22 67.06 24.22C67.28 24.22 67.54 24.2 67.82 24.17C68.11 24.13 68.38 24.06 68.63 23.96C68.88 23.87 69.08 23.72 69.25 23.52C69.41 23.33 69.48 23.08 69.47 22.77C69.46 22.46 69.35 22.2 69.13 22C68.92 21.8 68.66 21.65 68.33 21.52C68 21.4 67.63 21.3 67.21 21.21C66.78 21.12 66.36 21.03 65.93 20.93C65.48 20.83 65.05 20.7 64.63 20.56C64.22 20.42 63.85 20.23 63.52 19.98C63.19 19.75 62.93 19.43 62.74 19.06C62.54 18.68 62.44 18.22 62.44 17.66C62.44 17.06 62.59 16.56 62.88 16.16C63.16 15.75 63.53 15.42 63.97 15.18C64.41 14.93 64.9 14.76 65.44 14.65C65.98 14.55 66.5 14.5 66.99 14.5C67.55 14.5 68.09 14.56 68.59 14.68C69.1 14.8 69.57 15 69.98 15.27C70.4 15.54 70.73 15.9 71.01 16.33C71.29 16.76 71.46 17.28 71.53 17.9L69.03 17.9C68.91 17.32 68.66 16.92 68.25 16.73C67.83 16.52 67.36 16.42 66.83 16.42C66.66 16.42 66.46 16.43 66.22 16.47C65.99 16.5 65.78 16.55 65.57 16.63C65.36 16.7 65.2 16.82 65.05 16.97C64.91 17.12 64.83 17.32 64.83 17.56C64.83 17.87 64.94 18.1 65.14 18.28C65.34 18.47 65.61 18.62 65.94 18.75C66.26 18.87 66.64 18.97 67.06 19.06C67.48 19.15 67.92 19.24 68.36 19.34C68.8 19.43 69.22 19.56 69.64 19.7C70.07 19.84 70.44 20.04 70.77 20.28C71.09 20.53 71.36 20.83 71.56 21.2C71.76 21.56 71.87 22.03 71.87 22.56C71.87 23.22 71.72 23.77 71.42 24.23C71.13 24.68 70.75 25.06 70.28 25.34C69.81 25.62 69.28 25.83 68.71 25.96C68.14 26.09 67.57 26.16 67.01 26.16C66.32 26.16 65.68 26.08 65.1 25.92C64.52 25.76 64.01 25.52 63.58 25.21C63.16 24.89 62.82 24.49 62.58 24.02C62.34 23.54 62.21 22.97 62.19 22.32L64.6 22.32L64.6 22.3ZM72.5 14.8L74.31 14.8L74.31 11.49L76.71 11.49L76.71 14.8L78.87 14.8L78.87 16.62L76.71 16.62L76.71 22.51C76.71 22.77 76.72 22.98 76.74 23.18C76.76 23.36 76.81 23.52 76.89 23.65C76.96 23.78 77.08 23.88 77.24 23.94C77.4 24 77.6 24.04 77.87 24.04C78.04 24.04 78.21 24.04 78.38 24.03C78.55 24.02 78.72 24 78.89 23.95L78.89 25.83C78.62 25.87 78.36 25.89 78.12 25.92C77.86 25.95 77.61 25.96 77.34 25.96C76.71 25.96 76.2 25.9 75.82 25.78C75.44 25.66 75.13 25.48 74.92 25.24C74.7 25 74.56 24.72 74.47 24.36C74.4 24 74.35 23.6 74.34 23.15L74.34 16.64L72.52 16.64L72.52 14.8L72.5 14.8ZM80.56 14.8L82.83 14.8L82.83 16.3L82.87 16.3C83.21 15.65 83.68 15.2 84.28 14.92C84.88 14.64 85.53 14.5 86.24 14.5C87.1 14.5 87.84 14.65 88.47 14.96C89.11 15.26 89.64 15.68 90.06 16.22C90.49 16.76 90.79 17.38 91.01 18.09C91.22 18.8 91.32 19.56 91.32 20.37C91.32 21.11 91.23 21.83 91.04 22.52C90.85 23.22 90.56 23.83 90.18 24.37C89.8 24.91 89.31 25.33 88.72 25.65C88.12 25.97 87.44 26.13 86.63 26.13C86.28 26.13 85.93 26.1 85.58 26.04C85.23 25.97 84.9 25.87 84.58 25.73C84.26 25.58 83.95 25.4 83.69 25.18C83.41 24.95 83.19 24.69 83 24.4L82.96 24.4L82.96 29.91L80.56 29.91L80.56 14.8ZM88.93 20.33C88.93 19.83 88.87 19.35 88.74 18.88C88.61 18.4 88.42 18 88.17 17.63C87.91 17.26 87.6 16.97 87.23 16.76C86.84 16.54 86.41 16.42 85.92 16.42C84.92 16.42 84.15 16.78 83.65 17.49C83.14 18.2 82.88 19.15 82.88 20.33C82.88 20.89 82.95 21.4 83.08 21.88C83.22 22.35 83.41 22.76 83.69 23.1C83.95 23.45 84.27 23.72 84.64 23.91C85.01 24.11 85.45 24.21 85.93 24.21C86.48 24.21 86.94 24.09 87.32 23.87C87.7 23.64 88.01 23.34 88.25 22.98C88.5 22.62 88.68 22.21 88.78 21.75C88.88 21.28 88.93 20.81 88.93 20.33ZM93.16 10.6L95.55 10.6L95.55 12.9L93.16 12.9L93.16 10.6ZM93.16 14.8L95.55 14.8L95.55 25.83L93.16 25.83L93.16 14.8ZM97.69 10.6L100.08 10.6L100.08 25.83L97.69 25.83L97.69 10.6ZM107.42 26.13C106.56 26.13 105.78 25.98 105.1 25.69C104.43 25.4 103.85 25 103.38 24.49C102.91 23.97 102.55 23.36 102.31 22.65C102.06 21.94 101.94 21.16 101.94 20.31C101.94 19.47 102.06 18.69 102.31 17.98C102.55 17.27 102.91 16.66 103.38 16.15C103.84 15.63 104.43 15.23 105.1 14.94C105.78 14.65 106.56 14.5 107.42 14.5C108.29 14.5 109.06 14.65 109.74 14.94C110.42 15.23 110.99 15.64 111.47 16.15C111.93 16.66 112.3 17.27 112.54 17.98C112.78 18.69 112.91 19.47 112.91 20.31C112.91 21.16 112.78 21.94 112.54 22.65C112.3 23.36 111.93 23.97 111.47 24.49C111 25 110.42 25.4 109.74 25.69C109.06 25.98 108.29 26.13 107.42 26.13ZM107.42 24.21C107.95 24.21 108.42 24.09 108.81 23.87C109.2 23.64 109.52 23.34 109.77 22.97C110.03 22.61 110.21 22.19 110.34 21.73C110.45 21.26 110.52 20.79 110.52 20.31C110.52 19.83 110.45 19.37 110.34 18.9C110.22 18.42 110.03 18.02 109.77 17.65C109.52 17.28 109.2 17 108.81 16.77C108.42 16.54 107.95 16.42 107.42 16.42C106.89 16.42 106.43 16.54 106.04 16.77C105.64 17 105.33 17.3 105.07 17.65C104.82 18.02 104.64 18.42 104.51 18.9C104.39 19.37 104.33 19.83 104.33 20.31C104.33 20.79 104.39 21.26 104.51 21.73C104.63 22.19 104.82 22.61 105.07 22.97C105.33 23.34 105.64 23.64 106.04 23.87C106.43 24.1 106.89 24.21 107.42 24.21ZM113.61 14.8L115.42 14.8L115.42 11.49L117.81 11.49L117.81 14.8L119.97 14.8L119.97 16.62L117.81 16.62L117.81 22.51C117.81 22.77 117.82 22.98 117.85 23.18C117.87 23.36 117.92 23.52 117.99 23.65C118.07 23.78 118.18 23.88 118.34 23.94C118.5 24 118.7 24.04 118.98 24.04C119.15 24.04 119.32 24.04 119.49 24.03C119.66 24.02 119.83 24 120 23.95L120 25.83C119.73 25.87 119.47 25.89 119.22 25.92C118.97 25.95 118.71 25.96 118.45 25.96C117.81 25.96 117.31 25.9 116.92 25.78C116.54 25.66 116.24 25.48 116.02 25.24C115.8 25 115.66 24.72 115.58 24.36C115.5 24 115.45 23.6 115.44 23.15L115.44 16.64L113.63 16.64L113.63 14.8L113.61 14.8Z" fill="#F6F8FA" fill-opacity="1.000000" fill-rule="nonzero"/>
	<path id="Vector" d="M28.73 10.6L17.76 10.6L14.37 0L10.97 10.6L0 10.59L8.88 17.15L5.48 27.74L14.37 21.19L23.24 27.74L19.85 17.15L28.73 10.6Z" fill="#00B67A" fill-opacity="1.000000" fill-rule="nonzero"/>
	<path id="Vector" d="M20.62 19.54L19.85 17.15L14.37 21.19L20.62 19.54Z" fill="#005128" fill-opacity="1.000000" fill-rule="nonzero"/>
	<rect id="Frame 35" rx="7.500000" width="44.000000" height="31.000000" transform="translate(132.500000 2.500000)" fill="#212121" fill-opacity="1.000000"/>
	<g clip-path="url(#clip765_12371)">
		<path id="5.0" d="M161.81 22.13Q162.07 21.99 162.3 21.8C162.9 21.32 163.33 20.72 163.59 20.01C163.86 19.3 164 18.53 164 17.69Q164 16.43 163.59 15.36C163.33 14.65 162.9 14.06 162.3 13.59Q162.07 13.4 161.81 13.26Q161.07 12.87 160.13 12.87Q159.21 12.87 158.48 13.24Q158.2 13.39 157.95 13.59C157.35 14.06 156.92 14.65 156.66 15.36Q156.27 16.43 156.27 17.69Q156.27 18.95 156.66 20.01C156.92 20.72 157.35 21.32 157.95 21.8Q158.2 22 158.48 22.14Q159.21 22.52 160.13 22.52Q161.07 22.52 161.81 22.13ZM145.28 21.65Q146.46 22.52 148.28 22.52Q149.88 22.52 150.88 21.74Q150.94 21.7 151 21.65Q151.37 21.33 151.61 20.92Q152.02 20.23 152.02 19.28Q152.02 18.33 151.59 17.64Q151.4 17.34 151.14 17.09Q150.76 16.73 150.32 16.53Q149.73 16.26 149.02 16.26Q148.09 16.26 147.42 16.68Q147.17 16.83 146.96 17.04L146.96 14.76L151.39 14.76L151.39 13.01L144.98 13.01L144.98 18.37L146.36 18.74Q146.68 18.44 147.06 18.25Q147.62 17.98 148.32 17.98Q149.11 17.98 149.55 18.36C149.85 18.61 150 18.95 150 19.37Q150 19.61 149.92 19.82Q149.81 20.12 149.53 20.36C149.22 20.62 148.8 20.75 148.27 20.75Q147.38 20.75 146.67 20.4Q146.19 20.15 145.79 19.73L144.68 21.12Q144.96 21.42 145.28 21.65ZM160.13 20.75C159.5 20.75 159.03 20.47 158.73 19.91C158.44 19.35 158.29 18.61 158.29 17.69Q158.29 16.3 158.73 15.48C159.03 14.92 159.5 14.64 160.13 14.64Q160.62 14.64 160.97 14.85Q161.31 15.06 161.52 15.48C161.82 16.03 161.97 16.76 161.97 17.69Q161.97 19.07 161.52 19.91C161.23 20.47 160.77 20.75 160.13 20.75ZM154.31 22.5C154.61 22.5 154.88 22.39 155.1 22.17C155.33 21.94 155.44 21.68 155.44 21.37C155.44 21.06 155.33 20.8 155.1 20.57C154.88 20.35 154.61 20.24 154.31 20.24Q154.1 20.24 153.91 20.3Q153.69 20.39 153.51 20.57C153.28 20.8 153.17 21.06 153.17 21.37Q153.17 21.58 153.24 21.76Q153.32 21.98 153.51 22.17C153.73 22.39 154 22.5 154.31 22.5Z" fill="#F6F8FA" fill-opacity="1.000000" fill-rule="evenodd"/>
	</g>
</svg>
